<?xml version="1.0" standalone="no"?><!DOCTYPE svg PUBLIC "-//W3C//DTD SVG 1.1//EN" "http://www.w3.org/Graphics/SVG/1.1/DTD/svg11.dtd"><svg t="1753927586566" class="icon" viewBox="0 0 1025 1024" version="1.1" xmlns="http://www.w3.org/2000/svg" p-id="11532" xmlns:xlink="http://www.w3.org/1999/xlink" width="32.03125" height="32"><path d="M1024 344.747c-3.413-143.36-128-170.667-128-170.667s-97.28 0-223.573-1.707l92.16-88.746s13.653-18.774-10.24-39.254c-23.894-20.48-27.307-11.946-34.134-6.826-8.533 5.12-117.76 114.346-136.533 133.12h-153.6 18.773S317.44 40.96 308.907 34.133c-8.534-5.12-10.24-13.653-34.134 6.827-23.893 20.48-10.24 39.253-10.24 39.253l93.867 92.16c-102.4 0-191.147 0-232.107 1.707C-6.827 211.627 3.413 344.747 3.413 344.747s1.707 285.013 0 430.08C17.067 919.893 128 942.08 128 942.08s44.373 1.707 76.8 1.707c3.413 8.533 6.827 54.613 56.32 54.613s56.32-54.613 56.32-54.613 368.64-1.707 399.36-1.707c1.707 15.36 8.533 58.027 59.733 56.32 49.494-1.707 54.614-59.733 54.614-59.733s17.066-1.707 68.266 0c119.467-22.187 126.294-162.134 126.294-162.134s-3.414-288.426-1.707-431.786z m-104.107 455.68c0 22.186-17.066 40.96-39.253 40.96H153.6c-22.187 0-39.253-18.774-39.253-40.96v-481.28c0-22.187 18.773-40.96 39.253-40.96h727.04c22.187 0 39.253 18.773 39.253 40.96v481.28z" fill="#00A2D7" p-id="11533"></path><path d="M404.48 414.72l-213.333 40.96 18.773 80.213 209.92-40.96-15.36-80.213z m114.347 211.627c-52.907 112.64-98.987 27.306-98.987 27.306l-34.133 22.187s68.266 93.867 134.826 22.187c76.8 71.68 136.534-22.187 136.534-22.187l-32.427-20.48s-56.32 80.213-105.813-29.013z m105.813-133.12l211.627 40.96 17.066-80.214L640 413.013c1.707 0-15.36 80.214-15.36 80.214z" fill="#00A2D7" p-id="11534"></path></svg>